{
    "asset" : {
        "generator" : "Khronos glTF Blender I/O v3.4.50",
        "version" : "2.0"
    },
    "scene" : 0,
    "scenes" : [
        {
            "name" : "Scene",
            "nodes" : [
                0,
                1,
                2,
                3,
                4,
                5,
                6,
                7
            ]
        }
    ],
    "nodes" : [
        {
            "mesh" : 0,
            "name" : "1-head"
        },
        {
            "name" : "Empty",
            "rotation" : [
                0.70710688829422,
                0,
                0,
                0.7071066498756409
            ]
        },
        {
            "mesh" : 1,
            "name" : "Roundcube.003",
            "translation" : [
                0,
                -0.6173482537269592,
                -0.10222171247005463
            ]
        },
        {
            "mesh" : 2,
            "name" : "2-body",
            "translation" : [
                0,
                -0.6173482537269592,
                -0.10222171247005463
            ]
        },
        {
            "mesh" : 3,
            "name" : "3-tshirt",
            "translation" : [
                0,
                -0.6173482537269592,
                -0.10222171247005463
            ]
        },
        {
            "name" : "Empty.001",
            "rotation" : [
                0.70710688829422,
                0,
                0,
                0.7071066498756409
            ],
            "translation" : [
                5.168909549713135,
                0.007467444986104965,
                0
            ]
        },
        {
            "mesh" : 4,
            "name" : "4-tail",
            "rotation" : [
                -0.11608666926622391,
                -0.007306412328034639,
                -0.0032425830140709877,
                0.9932069182395935
            ],
            "scale" : [
                0.16008377075195312,
                0.16008377075195312,
                0.16008377075195312
            ],
            "translation" : [
                -0.029677242040634155,
                -1.3256206512451172,
                -0.6435447931289673
            ]
        },
        {
            "mesh" : 5,
            "name" : "5-mouth",
            "rotation" : [
                0.1573948860168457,
                0,
                0,
                0.9875357747077942
            ],
            "scale" : [
                0.36000001430511475,
                0.25,
                0.10000000894069672
            ],
            "translation" : [
                -0.21131452918052673,
                0.31940412521362305,
                0.8640361428260803
            ]
        }
    ],
    "materials" : [
        {
            "doubleSided" : true,
            "name" : "Kuma_Material",
            "pbrMetallicRoughness" : {
                "baseColorTexture" : {
                    "index" : 0
                },
                "metallicFactor" : 0,
                "roughnessFactor" : 0.5
            }
        }
    ],
    "meshes" : [
        {
            "name" : "Mesh",
            "primitives" : [
                {
                    "attributes" : {
                        "COLOR_0" : 0,
                        "POSITION" : 1,
                        "TEXCOORD_0" : 2,
                        "NORMAL" : 3,
                        "TANGENT" : 4
                    },
                    "indices" : 5,
                    "material" : 0
                },
                {
                    "attributes" : {
                        "POSITION" : 6
                    },
                    "material" : 0,
                    "mode" : 0
                }
            ]
        },
        {
            "name" : "Mesh",
            "primitives" : [
                {
                    "attributes" : {
                        "POSITION" : 7,
                        "NORMAL" : 8
                    },
                    "indices" : 9
                }
            ]
        },
        {
            "name" : "Mesh",
            "primitives" : [
                {
                    "attributes" : {
                        "POSITION" : 10,
                        "TEXCOORD_0" : 11,
                        "NORMAL" : 12,
                        "TANGENT" : 13
                    },
                    "indices" : 14,
                    "material" : 0
                }
            ]
        },
        {
            "name" : "Mesh",
            "primitives" : [
                {
                    "attributes" : {
                        "POSITION" : 15,
                        "TEXCOORD_0" : 16,
                        "NORMAL" : 17,
                        "TANGENT" : 18
                    },
                    "indices" : 19,
                    "material" : 0
                }
            ]
        },
        {
            "name" : "Mesh",
            "primitives" : [
                {
                    "attributes" : {
                        "POSITION" : 20,
                        "TEXCOORD_0" : 21,
                        "NORMAL" : 22,
                        "TANGENT" : 23
                    },
                    "indices" : 24,
                    "material" : 0
                }
            ]
        },
        {
            "name" : "Mesh",
            "primitives" : [
                {
                    "attributes" : {
                        "POSITION" : 25,
                        "TEXCOORD_0" : 26,
                        "NORMAL" : 27,
                        "TANGENT" : 28
                    },
                    "indices" : 29,
                    "material" : 0
                }
            ]
        }
    ],
    "textures" : [
        {
            "sampler" : 0,
            "source" : 0
        }
    ],
    "images" : [
        {
            "bufferView" : 6,
            "mimeType" : "image/png",
            "name" : "kuma_texture"
        }
    ],
    "accessors" : [
        {
            "bufferView" : 0,
            "componentType" : 5123,
            "count" : 4328,
            "normalized" : true,
            "type" : "VEC4"
        },
        {
            "bufferView" : 1,
            "componentType" : 5126,
            "count" : 4328,
            "max" : [
                1.6089484691619873,
                1.799139380455017,
                0.957736611366272
            ],
            "min" : [
                -1.6089484691619873,
                -0.25017619132995605,
                -0.9577364921569824
            ],
            "type" : "VEC3"
        },
        {
            "bufferView" : 2,
            "componentType" : 5126,
            "count" : 4328,
            "type" : "VEC2"
        },
        {
            "bufferView" : 3,
            "componentType" : 5126,
            "count" : 4328,
            "type" : "VEC3"
        },
        {
            "bufferView" : 4,
            "componentType" : 5126,
            "count" : 4328,
            "type" : "VEC4"
        },
        {
            "bufferView" : 5,
            "componentType" : 5123,
            "count" : 20352,
            "type" : "SCALAR"
        },
        {
            "bufferView" : 7,
            "componentType" : 5126,
            "count" : 2,
            "max" : [
                0.8509415984153748,
                -0.10146969556808472,
                0.5773503184318542
            ],
            "min" : [
                -0.8509415984153748,
                -0.10146969556808472,
                0.5773503184318542
            ],
            "type" : "VEC3"
        },
        {
            "bufferView" : 8,
            "componentType" : 5126,
            "count" : 3746,
            "max" : [
                1.452043890953064,
                0.566355288028717,
                0.980740487575531
            ],
            "min" : [
                -1.4520440101623535,
                -1.400604248046875,
                -0.7834085822105408
            ],
            "type" : "VEC3"
        },
        {
            "bufferView" : 9,
            "componentType" : 5126,
            "count" : 3746,
            "type" : "VEC3"
        },
        {
            "bufferView" : 10,
            "componentType" : 5123,
            "count" : 22464,
            "type" : "SCALAR"
        },
        {
            "bufferView" : 11,
            "componentType" : 5126,
            "count" : 5512,
            "max" : [
                1.452043890953064,
                0.5444728136062622,
                0.980740487575531
            ],
            "min" : [
                -1.4520440101623535,
                -1.400604248046875,
                -0.7834085822105408
            ],
            "type" : "VEC3"
        },
        {
            "bufferView" : 12,
            "componentType" : 5126,
            "count" : 5512,
            "type" : "VEC2"
        },
        {
            "bufferView" : 13,
            "componentType" : 5126,
            "count" : 5512,
            "type" : "VEC3"
        },
        {
            "bufferView" : 14,
            "componentType" : 5126,
            "count" : 5512,
            "type" : "VEC4"
        },
        {
            "bufferView" : 15,
            "componentType" : 5123,
            "count" : 23088,
            "type" : "SCALAR"
        },
        {
            "bufferView" : 16,
            "componentType" : 5126,
            "count" : 1712,
            "max" : [
                1.0860178470611572,
                0.7404691576957703,
                1.097482442855835
            ],
            "min" : [
                -1.0860178470611572,
                -0.6124505400657654,
                -0.8808726072311401
            ],
            "type" : "VEC3"
        },
        {
            "bufferView" : 17,
            "componentType" : 5126,
            "count" : 1712,
            "type" : "VEC2"
        },
        {
            "bufferView" : 18,
            "componentType" : 5126,
            "count" : 1712,
            "type" : "VEC3"
        },
        {
            "bufferView" : 19,
            "componentType" : 5126,
            "count" : 1712,
            "type" : "VEC4"
        },
        {
            "bufferView" : 20,
            "componentType" : 5123,
            "count" : 6864,
            "type" : "SCALAR"
        },
        {
            "bufferView" : 21,
            "componentType" : 5126,
            "count" : 1875,
            "max" : [
                0.957736611366272,
                0.957736611366272,
                0.9577365517616272
            ],
            "min" : [
                -0.957736611366272,
                -0.957736611366272,
                -0.9577365517616272
            ],
            "type" : "VEC3"
        },
        {
            "bufferView" : 22,
            "componentType" : 5126,
            "count" : 1875,
            "type" : "VEC2"
        },
        {
            "bufferView" : 23,
            "componentType" : 5126,
            "count" : 1875,
            "type" : "VEC3"
        },
        {
            "bufferView" : 24,
            "componentType" : 5126,
            "count" : 1875,
            "type" : "VEC4"
        },
        {
            "bufferView" : 25,
            "componentType" : 5123,
            "count" : 9216,
            "type" : "SCALAR"
        },
        {
            "bufferView" : 26,
            "componentType" : 5126,
            "count" : 1876,
            "max" : [
                1.432173490524292,
                0.957736611366272,
                0.9577365517616272
            ],
            "min" : [
                -0.4836595058441162,
                -0.957736611366272,
                -0.9577365517616272
            ],
            "type" : "VEC3"
        },
        {
            "bufferView" : 27,
            "componentType" : 5126,
            "count" : 1876,
            "type" : "VEC2"
        },
        {
            "bufferView" : 28,
            "componentType" : 5126,
            "count" : 1876,
            "type" : "VEC3"
        },
        {
            "bufferView" : 29,
            "componentType" : 5126,
            "count" : 1876,
            "type" : "VEC4"
        },
        {
            "bufferView" : 30,
            "componentType" : 5123,
            "count" : 9216,
            "type" : "SCALAR"
        }
    ],
    "bufferViews" : [
        {
            "buffer" : 0,
            "byteLength" : 34624,
            "byteOffset" : 0,
            "target" : 34962
        },
        {
            "buffer" : 0,
            "byteLength" : 51936,
            "byteOffset" : 34624,
            "target" : 34962
        },
        {
            "buffer" : 0,
            "byteLength" : 34624,
            "byteOffset" : 86560,
            "target" : 34962
        },
        {
            "buffer" : 0,
            "byteLength" : 51936,
            "byteOffset" : 121184,
            "target" : 34962
        },
        {
            "buffer" : 0,
            "byteLength" : 69248,
            "byteOffset" : 173120,
            "target" : 34962
        },
        {
            "buffer" : 0,
            "byteLength" : 40704,
            "byteOffset" : 242368,
            "target" : 34963
        },
        {
            "buffer" : 0,
            "byteLength" : 382402,
            "byteOffset" : 283072
        },
        {
            "buffer" : 0,
            "byteLength" : 24,
            "byteOffset" : 665476,
            "target" : 34962
        },
        {
            "buffer" : 0,
            "byteLength" : 44952,
            "byteOffset" : 665500,
            "target" : 34962
        },
        {
            "buffer" : 0,
            "byteLength" : 44952,
            "byteOffset" : 710452,
            "target" : 34962
        },
        {
            "buffer" : 0,
            "byteLength" : 44928,
            "byteOffset" : 755404,
            "target" : 34963
        },
        {
            "buffer" : 0,
            "byteLength" : 66144,
            "byteOffset" : 800332,
            "target" : 34962
        },
        {
            "buffer" : 0,
            "byteLength" : 44096,
            "byteOffset" : 866476,
            "target" : 34962
        },
        {
            "buffer" : 0,
            "byteLength" : 66144,
            "byteOffset" : 910572,
            "target" : 34962
        },
        {
            "buffer" : 0,
            "byteLength" : 88192,
            "byteOffset" : 976716,
            "target" : 34962
        },
        {
            "buffer" : 0,
            "byteLength" : 46176,
            "byteOffset" : 1064908,
            "target" : 34963
        },
        {
            "buffer" : 0,
            "byteLength" : 20544,
            "byteOffset" : 1111084,
            "target" : 34962
        },
        {
            "buffer" : 0,
            "byteLength" : 13696,
            "byteOffset" : 1131628,
            "target" : 34962
        },
        {
            "buffer" : 0,
            "byteLength" : 20544,
            "byteOffset" : 1145324,
            "target" : 34962
        },
        {
            "buffer" : 0,
            "byteLength" : 27392,
            "byteOffset" : 1165868,
            "target" : 34962
        },
        {
            "buffer" : 0,
            "byteLength" : 13728,
            "byteOffset" : 1193260,
            "target" : 34963
        },
        {
            "buffer" : 0,
            "byteLength" : 22500,
            "byteOffset" : 1206988,
            "target" : 34962
        },
        {
            "buffer" : 0,
            "byteLength" : 15000,
            "byteOffset" : 1229488,
            "target" : 34962
        },
        {
            "buffer" : 0,
            "byteLength" : 22500,
            "byteOffset" : 1244488,
            "target" : 34962
        },
        {
            "buffer" : 0,
            "byteLength" : 30000,
            "byteOffset" : 1266988,
            "target" : 34962
        },
        {
            "buffer" : 0,
            "byteLength" : 18432,
            "byteOffset" : 1296988,
            "target" : 34963
        },
        {
            "buffer" : 0,
            "byteLength" : 22512,
            "byteOffset" : 1315420,
            "target" : 34962
        },
        {
            "buffer" : 0,
            "byteLength" : 15008,
            "byteOffset" : 1337932,
            "target" : 34962
        },
        {
            "buffer" : 0,
            "byteLength" : 22512,
            "byteOffset" : 1352940,
            "target" : 34962
        },
        {
            "buffer" : 0,
            "byteLength" : 30016,
            "byteOffset" : 1375452,
            "target" : 34962
        },
        {
            "buffer" : 0,
            "byteLength" : 18432,
            "byteOffset" : 1405468,
            "target" : 34963
        }
    ],
    "samplers" : [
        {
            "magFilter" : 9728,
            "minFilter" : 9984
        }
    ],
    "buffers" : [
        {
            "byteLength" : 1423900,
            "uri" : "data:application/octet-stream;base64,"
        }
    ]
}
